<svg xmlns="http://www.w3.org/2000/svg" viewBox="0 0 32 32" fill="none">
  <rect width="32" height="32" rx="8" fill="#0a0a0a"/>
  <rect x="1" y="1" width="30" height="30" rx="7" stroke="#22c55e" stroke-opacity="0.3" stroke-width="1"/>
  <path d="M16 7C11.03 7 7 11.03 7 16s4.03 9 9 9 9-4.03 9-9-4.03-9-9-9zm0 16.2c-3.97 0-7.2-3.23-7.2-7.2S12.03 8.8 16 8.8s7.2 3.23 7.2 7.2-3.23 7.2-7.2 7.2z" fill="#22c55e"/>
  <circle cx="16" cy="16" r="3" fill="#22c55e"/>
  <path d="M16 10v3M16 19v3M10 16h3M19 16h3" stroke="#22c55e" stroke-width="1.5" stroke-linecap="round"/>
  <path d="M12.1 12.1l2.1 2.1M17.8 17.8l2.1 2.1M12.1 19.9l2.1-2.1M17.8 14.2l2.1-2.1" stroke="#22c55e" stroke-width="1" stroke-linecap="round" stroke-opacity="0.5"/>
</svg>
